<mxfile host="65bd71144e">
    <diagram id="bVoswQC8T6PlKmy4Bn8u" name="Page-1">
        <mxGraphModel dx="1958" dy="788" grid="1" gridSize="10" guides="1" tooltips="1" connect="1" arrows="1" fold="1" page="1" pageScale="1" pageWidth="827" pageHeight="1169" math="0" shadow="0">
            <root>
                <mxCell id="0"/>
                <mxCell id="1" parent="0"/>
                <mxCell id="246" style="edgeStyle=none;html=1;entryX=0.5;entryY=0;entryDx=0;entryDy=0;" edge="1" parent="1" source="3" target="241">
                    <mxGeometry relative="1" as="geometry"/>
                </mxCell>
                <mxCell id="3" value="Start" style="ellipse;whiteSpace=wrap;html=1;" parent="1" vertex="1">
                    <mxGeometry x="105" y="130" width="120" height="60" as="geometry"/>
                </mxCell>
                <mxCell id="4" value="Stop" style="ellipse;whiteSpace=wrap;html=1;" parent="1" vertex="1">
                    <mxGeometry x="102.5" y="940" width="120" height="60" as="geometry"/>
                </mxCell>
                <mxCell id="194" style="edgeStyle=none;html=1;entryX=0.5;entryY=0;entryDx=0;entryDy=0;" parent="1" source="31" target="129" edge="1">
                    <mxGeometry relative="1" as="geometry"/>
                </mxCell>
                <mxCell id="217" style="edgeStyle=none;rounded=0;html=1;" parent="1" source="31" target="90" edge="1">
                    <mxGeometry relative="1" as="geometry">
                        <Array as="points">
                            <mxPoint x="25" y="370"/>
                        </Array>
                    </mxGeometry>
                </mxCell>
                <mxCell id="31" value="if (userInput&amp;nbsp; &amp;lt;&amp;nbsp; 6&lt;br&gt;|| &amp;gt; 0)" style="rhombus;whiteSpace=wrap;html=1;" parent="1" vertex="1">
                    <mxGeometry x="112.5" y="320" width="105" height="100" as="geometry"/>
                </mxCell>
                <mxCell id="139" value="" style="edgeStyle=none;html=1;" parent="1" source="57" target="138" edge="1">
                    <mxGeometry relative="1" as="geometry"/>
                </mxCell>
                <mxCell id="228" value="" style="edgeStyle=none;html=1;" parent="1" source="57" target="226" edge="1">
                    <mxGeometry relative="1" as="geometry"/>
                </mxCell>
                <mxCell id="57" value="if userInput == randomNumber" style="rhombus;whiteSpace=wrap;html=1;" parent="1" vertex="1">
                    <mxGeometry x="107.5" y="670" width="115" height="110" as="geometry"/>
                </mxCell>
                <mxCell id="218" style="edgeStyle=none;rounded=0;html=1;entryX=0;entryY=0.5;entryDx=0;entryDy=0;endArrow=classic;endFill=1;" parent="1" source="90" target="4" edge="1">
                    <mxGeometry relative="1" as="geometry">
                        <Array as="points">
                            <mxPoint x="20" y="970"/>
                        </Array>
                    </mxGeometry>
                </mxCell>
                <mxCell id="90" value="console.log&lt;br&gt;(&quot;Invalid Input, &lt;br&gt;Enter a valid choice&quot;)" style="shape=parallelogram;perimeter=parallelogramPerimeter;whiteSpace=wrap;html=1;fixedSize=1;" parent="1" vertex="1">
                    <mxGeometry x="-43.5" y="420" width="137.5" height="50" as="geometry"/>
                </mxCell>
                <mxCell id="109" value="&lt;span style=&quot;font-size: 12px&quot;&gt;No&lt;/span&gt;" style="text;html=1;align=center;verticalAlign=middle;resizable=0;points=[];autosize=1;strokeColor=none;fillColor=none;fontSize=10;" parent="1" vertex="1">
                    <mxGeometry x="64" y="340" width="30" height="20" as="geometry"/>
                </mxCell>
                <mxCell id="225" style="edgeStyle=none;rounded=0;html=1;entryX=0;entryY=0.5;entryDx=0;entryDy=0;endArrow=classic;endFill=1;" parent="1" source="129" target="199" edge="1">
                    <mxGeometry relative="1" as="geometry">
                        <Array as="points">
                            <mxPoint x="60" y="510"/>
                            <mxPoint x="60" y="890"/>
                        </Array>
                    </mxGeometry>
                </mxCell>
                <mxCell id="243" style="edgeStyle=none;html=1;entryX=0.5;entryY=0;entryDx=0;entryDy=0;" edge="1" parent="1" source="129" target="242">
                    <mxGeometry relative="1" as="geometry"/>
                </mxCell>
                <mxCell id="129" value="while(True)" style="rhombus;whiteSpace=wrap;html=1;" parent="1" vertex="1">
                    <mxGeometry x="112.5" y="460" width="105" height="100" as="geometry"/>
                </mxCell>
                <mxCell id="137" value="&lt;font style=&quot;font-size: 12px&quot;&gt;Yes&lt;/font&gt;" style="text;html=1;align=center;verticalAlign=middle;resizable=0;points=[];autosize=1;strokeColor=none;fillColor=none;fontSize=10;" parent="1" vertex="1">
                    <mxGeometry x="177.5" y="550" width="40" height="20" as="geometry"/>
                </mxCell>
                <mxCell id="209" style="edgeStyle=none;html=1;entryX=0.5;entryY=0;entryDx=0;entryDy=0;rounded=0;" parent="1" source="138" target="205" edge="1">
                    <mxGeometry relative="1" as="geometry">
                        <Array as="points">
                            <mxPoint x="480" y="725"/>
                        </Array>
                    </mxGeometry>
                </mxCell>
                <mxCell id="211" value="" style="edgeStyle=none;rounded=0;html=1;" parent="1" source="138" target="210" edge="1">
                    <mxGeometry relative="1" as="geometry"/>
                </mxCell>
                <mxCell id="138" value="if userInput&amp;nbsp; &amp;gt; randomNumber" style="rhombus;whiteSpace=wrap;html=1;" parent="1" vertex="1">
                    <mxGeometry x="270" y="670" width="115" height="110" as="geometry"/>
                </mxCell>
                <mxCell id="152" value="&lt;font style=&quot;font-size: 12px&quot;&gt;Yes&lt;/font&gt;" style="text;html=1;align=center;verticalAlign=middle;resizable=0;points=[];autosize=1;strokeColor=none;fillColor=none;fontSize=10;" parent="1" vertex="1">
                    <mxGeometry x="185" y="760" width="40" height="20" as="geometry"/>
                </mxCell>
                <mxCell id="153" value="&lt;span style=&quot;font-size: 12px&quot;&gt;No&lt;/span&gt;" style="text;html=1;align=center;verticalAlign=middle;resizable=0;points=[];autosize=1;strokeColor=none;fillColor=none;fontSize=10;" parent="1" vertex="1">
                    <mxGeometry x="230" y="700" width="30" height="20" as="geometry"/>
                </mxCell>
                <mxCell id="154" value="&lt;span style=&quot;font-size: 12px&quot;&gt;No&lt;/span&gt;" style="text;html=1;align=center;verticalAlign=middle;resizable=0;points=[];autosize=1;strokeColor=none;fillColor=none;fontSize=10;" parent="1" vertex="1">
                    <mxGeometry x="384" y="700" width="30" height="20" as="geometry"/>
                </mxCell>
                <mxCell id="155" value="&lt;font style=&quot;font-size: 12px&quot;&gt;Yes&lt;/font&gt;" style="text;html=1;align=center;verticalAlign=middle;resizable=0;points=[];autosize=1;strokeColor=none;fillColor=none;fontSize=10;" parent="1" vertex="1">
                    <mxGeometry x="344" y="770" width="40" height="20" as="geometry"/>
                </mxCell>
                <mxCell id="203" style="edgeStyle=none;html=1;entryX=0.5;entryY=0;entryDx=0;entryDy=0;" parent="1" source="199" target="4" edge="1">
                    <mxGeometry relative="1" as="geometry"/>
                </mxCell>
                <mxCell id="199" value="console.log(&quot;You guessed correct!&quot;)" style="shape=parallelogram;perimeter=parallelogramPerimeter;whiteSpace=wrap;html=1;fixedSize=1;" parent="1" vertex="1">
                    <mxGeometry x="94" y="860" width="140" height="60" as="geometry"/>
                </mxCell>
                <mxCell id="221" value="" style="edgeStyle=none;rounded=0;html=1;" parent="1" source="205" target="219" edge="1">
                    <mxGeometry relative="1" as="geometry"/>
                </mxCell>
                <mxCell id="205" value="console.log(&quot;You guessed incorrect, the&amp;nbsp; number to low!&quot;)" style="shape=parallelogram;perimeter=parallelogramPerimeter;whiteSpace=wrap;html=1;fixedSize=1;" parent="1" vertex="1">
                    <mxGeometry x="410" y="800" width="140" height="60" as="geometry"/>
                </mxCell>
                <mxCell id="222" style="edgeStyle=none;rounded=0;html=1;endArrow=none;endFill=0;" parent="1" source="210" edge="1">
                    <mxGeometry relative="1" as="geometry">
                        <mxPoint x="480" y="880" as="targetPoint"/>
                        <Array as="points">
                            <mxPoint x="330" y="880"/>
                        </Array>
                    </mxGeometry>
                </mxCell>
                <mxCell id="210" value="console.log(&quot;You guessed incorrect, the&amp;nbsp; number to high!&quot;)" style="shape=parallelogram;perimeter=parallelogramPerimeter;whiteSpace=wrap;html=1;fixedSize=1;" parent="1" vertex="1">
                    <mxGeometry x="260" y="800" width="140" height="60" as="geometry"/>
                </mxCell>
                <mxCell id="214" value="&lt;span style=&quot;font-size: 12px&quot;&gt;No&lt;/span&gt;" style="text;html=1;align=center;verticalAlign=middle;resizable=0;points=[];autosize=1;strokeColor=none;fillColor=none;fontSize=10;" parent="1" vertex="1">
                    <mxGeometry x="75" y="480" width="30" height="20" as="geometry"/>
                </mxCell>
                <mxCell id="215" value="&lt;font style=&quot;font-size: 12px&quot;&gt;Yes&lt;/font&gt;" style="text;html=1;align=center;verticalAlign=middle;resizable=0;points=[];autosize=1;strokeColor=none;fillColor=none;fontSize=10;" parent="1" vertex="1">
                    <mxGeometry x="182.5" y="420" width="40" height="20" as="geometry"/>
                </mxCell>
                <mxCell id="223" style="edgeStyle=none;rounded=0;html=1;entryX=1;entryY=0.5;entryDx=0;entryDy=0;endArrow=classic;endFill=1;exitX=1;exitY=0.5;exitDx=0;exitDy=0;" parent="1" source="219" target="129" edge="1">
                    <mxGeometry relative="1" as="geometry">
                        <Array as="points">
                            <mxPoint x="590" y="930"/>
                            <mxPoint x="590" y="510"/>
                        </Array>
                    </mxGeometry>
                </mxCell>
                <mxCell id="219" value="counter = counter + 1" style="rounded=1;whiteSpace=wrap;html=1;" parent="1" vertex="1">
                    <mxGeometry x="420" y="900" width="120" height="60" as="geometry"/>
                </mxCell>
                <mxCell id="229" value="" style="edgeStyle=none;html=1;" parent="1" source="226" target="199" edge="1">
                    <mxGeometry relative="1" as="geometry"/>
                </mxCell>
                <mxCell id="226" value="Break" style="rounded=0;whiteSpace=wrap;html=1;" parent="1" vertex="1">
                    <mxGeometry x="124" y="810" width="80" height="20" as="geometry"/>
                </mxCell>
                <mxCell id="247" value="" style="edgeStyle=none;html=1;" edge="1" parent="1" source="241" target="31">
                    <mxGeometry relative="1" as="geometry"/>
                </mxCell>
                <mxCell id="241" value="&lt;span&gt;Get randomNumber&lt;/span&gt;" style="rounded=1;whiteSpace=wrap;html=1;" vertex="1" parent="1">
                    <mxGeometry x="105" y="220" width="120" height="60" as="geometry"/>
                </mxCell>
                <mxCell id="245" style="edgeStyle=none;html=1;entryX=0.5;entryY=0;entryDx=0;entryDy=0;" edge="1" parent="1" source="242" target="57">
                    <mxGeometry relative="1" as="geometry"/>
                </mxCell>
                <mxCell id="242" value="Get userInput" style="shape=parallelogram;perimeter=parallelogramPerimeter;whiteSpace=wrap;html=1;fixedSize=1;" vertex="1" parent="1">
                    <mxGeometry x="95" y="585" width="140" height="60" as="geometry"/>
                </mxCell>
            </root>
        </mxGraphModel>
    </diagram>
</mxfile>